<?xml version="1.0" encoding="utf-8"?>
<!-- Generator: Adobe Illustrator 27.0.0, SVG Export Plug-In . SVG Version: 6.00 Build 0)  -->
<svg version="1.1" id="Layer_1" xmlns="http://www.w3.org/2000/svg" xmlns:xlink="http://www.w3.org/1999/xlink" x="0px" y="0px"
	 viewBox="0 0 140 35" style="enable-background:new 0 0 140 35;" xml:space="preserve">
<style type="text/css">
	.st0{fill:#FFFFFF;}
</style>
<path class="st0" d="M49.9,19c-0.5,0.5-0.9,1.2-1,1.8h4.9v1.7h-4.9c0.2,0.7,0.5,1.3,1,1.8c0.7,0.7,1.7,1.1,2.7,1.1
	c0.4,0,0.8-0.1,1.2-0.2l1.3,1.3c-0.8,0.4-1.6,0.6-2.5,0.6l0,0c-1.5,0-2.8-0.6-3.9-1.6c-2.1-2.1-2.1-5.6,0-7.7c1-1,2.4-1.6,3.9-1.6
	c0.9,0,1.7,0.2,2.5,0.6l-1.3,1.3c-0.4-0.1-0.8-0.2-1.2-0.2C51.6,17.9,50.6,18.3,49.9,19L49.9,19z M61.5,21l-1.2-0.2
	c-1.4-0.3-2-0.8-2-1.6l0,0c0-1,0.9-1.6,2.3-1.6c1.4,0,2.2,0.6,2.4,1.6l0,0.1h1.6v-0.1c-0.1-1.8-1.7-3-4-3c-2.3,0-4,1.2-4,3l0,0
	c0,1.6,1,2.5,3.2,3l1.2,0.2c1.5,0.3,2.1,0.8,2.1,1.7l0,0c0,1-1,1.7-2.5,1.7c-1.5,0-2.5-0.6-2.7-1.6V24h-1.6v0.1c0.1,1.8,1.8,3,4.2,3
	c2.6,0,4.2-1.2,4.2-3.1l0,0C64.8,22.3,63.8,21.5,61.5,21L61.5,21z M65.4,17.7h3.4v9.2h1.6v-9.2h3.4v-1.3h-8.5V17.7z M80.8,22.6
	l2.5,4.3h-1.9l-2.3-4.1h-2.4v4.1H75V16.4h4.3c2.2,0,3.6,1.3,3.6,3.2v0C82.9,21,82.1,22.2,80.8,22.6L80.8,22.6z M81.2,19.6L81.2,19.6
	c0-1.2-0.8-1.9-2.2-1.9h-2.4v3.9h2.5C80.5,21.5,81.2,20.8,81.2,19.6L81.2,19.6z M89.8,16.4l4.1,10.5h-1.7l-1-2.9h-4.3l-1,2.9H84
	l4.1-10.5H89.8z M90.6,22.8l-1.7-4.7h0l-1.7,4.7H90.6z M92.7,17.7h3.4v9.2h1.6v-9.2h3.4v-1.3h-8.5L92.7,17.7L92.7,17.7z M102.3,26.9
	h7v-1.3H104v-3.4h5.1v-1.3H104v-3.2h5.4v-1.3h-7V26.9L102.3,26.9z M140,8.5V27h-4.6v-2.8h-5.5L128,27h-5.9l-4.8-7.8V27h-4.6V8.5h4.6
	v7.8l5.8-7.8h5.4l-6.6,9.3l3.4,5.2l10.1-14.5L140,8.5L140,8.5z M135.4,16.1l-3,4.4h3V16.1z"/>
<path class="st0" d="M17.4,0.1v6.3h6.7L7.6,22.9c-0.9-1.6-1.4-3.4-1.4-5.3c0-4.5,2.6-8.3,6.4-10.1V0.8C5.4,2.9,0,9.6,0,17.6
	C0,27.2,7.8,35,17.4,35c8,0,14.7-5.4,16.8-12.7h-6.7c-1.8,3.8-5.6,6.4-10.1,6.4c-1.9,0-3.8-0.5-5.3-1.4l16.5-16.5v6.7h6.3V0.1
	C34.8,0.1,17.4,0.1,17.4,0.1z"/>
</svg>
