<svg width="261" height="208" viewBox="0 0 261 208" fill="none" xmlns="http://www.w3.org/2000/svg">
<g filter="url(#filter0_d_37_107)">
<path d="M209.729 97.8484C209.497 97.3238 203.872 84.8461 191.368 72.3418C174.707 55.6805 153.662 46.875 130.5 46.875C107.337 46.875 86.2933 55.6805 69.632 72.3418C57.1277 84.8461 51.4765 97.3438 51.2706 97.8484C50.9686 98.5279 50.8125 99.2631 50.8125 100.007C50.8125 100.75 50.9686 101.485 51.2706 102.165C51.5031 102.689 57.1277 115.161 69.632 127.665C86.2933 144.32 107.337 153.125 130.5 153.125C153.662 153.125 174.707 144.32 191.368 127.665C203.872 115.161 209.497 102.689 209.729 102.165C210.031 101.485 210.187 100.75 210.187 100.007C210.187 99.2631 210.031 98.5279 209.729 97.8484ZM130.5 142.5C110.06 142.5 92.2035 135.069 77.4214 120.42C71.3562 114.388 66.196 107.51 62.1015 100C66.1949 92.4891 71.3552 85.6109 77.4214 79.5801C92.2035 64.9309 110.06 57.5 130.5 57.5C150.94 57.5 168.796 64.9309 183.578 79.5801C189.656 85.6095 194.827 92.4876 198.932 100C194.144 108.938 173.285 142.5 130.5 142.5ZM130.5 68.125C124.196 68.125 118.033 69.9944 112.791 73.4969C107.549 76.9994 103.464 81.9776 101.051 87.802C98.6387 93.6264 98.0075 100.035 99.2374 106.219C100.467 112.402 103.503 118.081 107.961 122.539C112.419 126.997 118.098 130.033 124.281 131.263C130.465 132.492 136.874 131.861 142.698 129.449C148.522 127.036 153.501 122.951 157.003 117.709C160.506 112.467 162.375 106.304 162.375 100C162.366 91.5489 159.005 83.4465 153.029 77.4707C147.053 71.4949 138.951 68.1338 130.5 68.125ZM130.5 121.25C126.297 121.25 122.189 120.004 118.694 117.669C115.2 115.334 112.476 112.015 110.867 108.132C109.259 104.249 108.838 99.9764 109.658 95.8543C110.478 91.7322 112.502 87.9458 115.474 84.974C118.446 82.0021 122.232 79.9782 126.354 79.1583C130.476 78.3384 134.749 78.7592 138.632 80.3676C142.515 81.9759 145.834 84.6996 148.169 88.1941C150.504 91.6887 151.75 95.7971 151.75 100C151.75 105.636 149.511 111.041 145.526 115.026C141.541 119.011 136.136 121.25 130.5 121.25Z" fill="white"/>
</g>
<defs>
<filter id="filter0_d_37_107" x="-4.5" y="-31" width="270" height="270" filterUnits="userSpaceOnUse" color-interpolation-filters="sRGB">
<feFlood flood-opacity="0" result="BackgroundImageFix"/>
<feColorMatrix in="SourceAlpha" type="matrix" values="0 0 0 0 0 0 0 0 0 0 0 0 0 0 0 0 0 0 127 0" result="hardAlpha"/>
<feOffset dy="4"/>
<feGaussianBlur stdDeviation="25"/>
<feComposite in2="hardAlpha" operator="out"/>
<feColorMatrix type="matrix" values="0 0 0 0 0 0 0 0 0 0 0 0 0 0 0 0 0 0 0.25 0"/>
<feBlend mode="normal" in2="BackgroundImageFix" result="effect1_dropShadow_37_107"/>
<feBlend mode="normal" in="SourceGraphic" in2="effect1_dropShadow_37_107" result="shape"/>
</filter>
</defs>
</svg>
