<svg width="274" height="170" viewBox="0 0 274 170" fill="none" xmlns="http://www.w3.org/2000/svg">
<path d="M193.668 148.752C193.668 138.867 193.668 133.925 192.448 129.903C189.701 120.847 182.614 113.761 173.559 111.014C169.537 109.794 164.594 109.794 154.709 109.794H119.293C109.407 109.794 104.465 109.794 100.443 111.014C91.3875 113.761 84.3012 120.847 81.5543 129.903C80.3342 133.925 80.3342 138.867 80.3342 148.752M168.876 53.1274C168.876 70.7315 154.605 85.0024 137.001 85.0024C119.397 85.0024 105.126 70.7315 105.126 53.1274C105.126 35.5234 119.397 21.2524 137.001 21.2524C154.605 21.2524 168.876 35.5234 168.876 53.1274Z" stroke="white" stroke-width="10" stroke-linecap="round" stroke-linejoin="round"/>
<path d="M256.668 91.0024C256.668 84.955 256.668 81.9313 255.921 79.4708C254.241 73.9311 249.906 69.5959 244.366 67.9155C241.906 67.1691 238.882 67.1691 232.834 67.1691H211.168C205.12 67.1691 202.097 67.1691 199.636 67.9155C194.096 69.5959 189.761 73.9311 188.081 79.4708C187.334 81.9313 187.334 84.955 187.334 91.0024M241.501 32.5024C241.501 43.272 232.771 52.0024 222.001 52.0024C211.231 52.0024 202.501 43.272 202.501 32.5024C202.501 21.7329 211.231 13.0024 222.001 13.0024C232.771 13.0024 241.501 21.7329 241.501 32.5024Z" stroke="white" stroke-width="8" stroke-linecap="round" stroke-linejoin="round"/>
<path d="M86.6676 91.0024C86.6676 84.955 86.6676 81.9313 85.9212 79.4708C84.2407 73.9311 79.9056 69.5959 74.3658 67.9155C71.9054 67.1691 68.8817 67.1691 62.8342 67.1691H41.1676C35.1201 67.1691 32.0964 67.1691 29.6359 67.9155C24.0962 69.5959 19.7611 73.9311 18.0806 79.4708C17.3342 81.9313 17.3342 84.955 17.3342 91.0024M71.5009 32.5024C71.5009 43.272 62.7704 52.0024 52.0009 52.0024C41.2313 52.0024 32.5009 43.272 32.5009 32.5024C32.5009 21.7329 41.2313 13.0024 52.0009 13.0024C62.7704 13.0024 71.5009 21.7329 71.5009 32.5024Z" stroke="white" stroke-width="8" stroke-linecap="round" stroke-linejoin="round"/>
</svg>
