<?xml version="1.0" encoding="utf-8"?>
<!-- Generator: Adobe Illustrator 27.0.0, SVG Export Plug-In . SVG Version: 6.00 Build 0)  -->
<svg version="1.1" id="Capa_1" xmlns="http://www.w3.org/2000/svg" xmlns:xlink="http://www.w3.org/1999/xlink" x="0px" y="0px"
	 viewBox="0 0 277.3 89.3" style="enable-background:new 0 0 277.3 89.3;" xml:space="preserve">
<style type="text/css">
	.st0{fill:#FFFFFF;}
</style>
<g>
	<path class="st0" d="M203.3,55.8C203.3,55.8,203.3,55.8,203.3,55.8c1,0,1.9-0.4,2.6-1.1s1.1-1.6,1.1-2.6c0-2-1.7-3.6-3.7-3.6
		c0,0,0,0,0,0c-2,0-3.7,1.7-3.6,3.7C199.7,54.2,201.3,55.8,203.3,55.8z"/>
	<path class="st0" d="M222.8,55.8c7.2,0,11.7-4.6,11.7-12s-4.5-12-11.7-12c-7.2,0-11.7,4.6-11.7,12S215.6,55.8,222.8,55.8z
		 M217.5,43.8c0-4.6,1.9-7.1,5.3-7.1c3.5,0,5.3,2.4,5.3,7.1c0,4.6-1.9,7.1-5.3,7.1C219.4,50.9,217.5,48.4,217.5,43.8z"/>
	<path class="st0" d="M244.5,40.1c1.1-1.7,3-2.8,5-2.8c0.7,0,1.4,0.1,2,0.2l0.2,0.1l1-5.5l-0.2-0.1c-0.7-0.2-1.5-0.3-2.3-0.3
		c-2.6,0.1-4.9,1.4-6.3,3.6l-0.7-3h-5.1v23h6.3V40.1z"/>
	<path class="st0" d="M257.3,47.6c-1.5,0.9-2.4,2.6-2.5,4.4c0,1.1,0.5,2.2,1.4,2.9c-2.4,1.3-3.6,3.1-3.6,5.3c0,4,4,6,11.8,6
		c10.2,0,12.4-4,12.4-7.4c0-5-4.8-6.2-9.5-6.6l-2.6-0.3c-3.2-0.3-4.5-0.6-4.5-1.5c0-0.6,0.3-1.1,0.9-1.4c1,0.2,2.1,0.3,3.1,0.3
		c6.3,0,10.2-3.4,10.2-8.8c0.1-2.1-0.7-4.1-2-5.7c0.6,0,1.2-0.1,1.8-0.1c0.7-0.1,1.4-0.1,2.1-0.2l0.2,0v-5.2l-0.3,0.1
		c-2.8,0.5-5.5,1.5-8.1,2.8c-1.3-0.4-2.6-0.6-4-0.5c-6.2,0-10.2,3.5-10.2,8.9C253.7,43.4,255.1,46.1,257.3,47.6z M258.1,59.3
		c0-1.1,0.6-2.2,1.5-2.8c1.4,0.3,2.8,0.5,4.2,0.7l2,0.2c3.3,0.3,4.8,0.7,4.8,2.1l0,0.1c0,0.7-0.4,1.2-1.1,1.6
		c-1,0.5-2.7,0.8-5.1,0.8c0,0,0,0,0,0C259.2,61.9,258.1,60.9,258.1,59.3z M260,40.7c0-2.8,1.6-4.6,4.2-4.6c2.5,0,4.1,1.8,4.1,4.6
		c0,3-1.4,4.6-4.1,4.6C261.5,45.2,260,43.5,260,40.7z"/>
	<path class="st0" d="M53.5,40.3c-6.3,0.2-9.9,3.1-9.9,7.8c-0.1,2,0.6,3.9,2,5.3c1.4,1.5,3.2,2.3,5.2,2.4c0.1,0,0.2,0,0.3,0
		c0.1,0,0.3,0,0.4,0c2.4,0,4.8-0.8,6.6-2.4l0.9,1.9h5.4L64.3,55c-0.3-1-0.4-2.6-0.4-6v-9.1c0-5.8-3.1-8.6-9.4-8.6
		c-3.3-0.1-6.5,0.8-9.2,2.6l-0.2,0.1l2.1,4.1l0.2-0.1c1.8-1.1,3.8-1.7,5.8-1.7c1.5,0,4.1,0.5,4.1,3.7v0.3L53.5,40.3z M57.4,44.8v4.6
		c-1.1,0.9-2.5,1.4-3.9,1.3c-2.2,0-3.5-1.1-3.5-3c0-1.2,0.5-2.8,4.3-2.9L57.4,44.8z"/>
	<path class="st0" d="M78.4,55.8L78.4,55.8L78.4,55.8c3,0,5.8-0.9,8.3-2.5l0.2-0.1l-1.6-4.3L85,49c-1.6,1-3.4,1.6-5.3,1.6
		c-4.8,0-6.5-3.9-6.5-7.2c0-4.2,2.8-7.2,6.5-7.2c2,0,4,0.6,5.7,1.8l0.4,0.3l0.1-5.4l-0.1-0.1c-2-1.2-4.4-1.7-6.7-1.6
		c-7.1,0-12.2,5.2-12.2,12.5C66.8,51.1,71.4,55.8,78.4,55.8z"/>
	<path class="st0" d="M99.3,55.8L99.3,55.8L99.3,55.8c3,0,5.8-0.9,8.3-2.5l0.2-0.1l-1.6-4.3l-0.3,0.2c-1.6,1-3.4,1.6-5.3,1.6
		c-4.8,0-6.5-3.9-6.5-7.2c0-4.2,2.8-7.2,6.5-7.2c2-0.1,4,0.6,5.7,1.8l0.4,0.3l0.1-5.4l-0.1-0.1c-2-1.2-4.4-1.7-6.7-1.6
		c-7.1,0-12.2,5.2-12.2,12.5C87.6,51.1,92.2,55.8,99.3,55.8z"/>
	<rect x="110.7" y="31.7" class="st0" width="6.4" height="23.6"/>
	<path class="st0" d="M113.9,28.7L113.9,28.7C114,28.7,114,28.7,113.9,28.7c2.2,0,3.9-1.7,3.9-3.8c0-2-1.6-3.7-3.7-3.8
		c-1,0-2,0.3-2.7,1c-0.7,0.7-1.2,1.6-1.2,2.6s0.3,2,1,2.7S112.9,28.6,113.9,28.7z"/>
	<path class="st0" d="M132,31.2c-3.1-0.1-6.2,1.2-8.4,3.4c-2.3,2.5-3.5,5.7-3.4,9.1c-0.1,3.4,1.2,6.8,3.6,9.2c2.2,1.9,4.9,3,7.7,3
		c0.1,0,0.3,0,0.4,0c3.2,0.1,6.3-1.1,8.5-3.4c2.2-2.4,3.5-5.7,3.3-9c0.1-3.3-1-6.4-3.2-8.9C138.4,32.3,135.2,31.1,132,31.2z
		 M137.3,43.5c0,4.6-2,7.3-5.3,7.3c-3.3,0-5.4-2.8-5.4-7.3c0-4.5,2-7.2,5.3-7.2c0,0,0,0,0,0c1.7,0,3,0.7,4,1.9
		C136.8,39.6,137.3,41.4,137.3,43.5z"/>
	<path class="st0" d="M153.1,39c1.6-1.4,3.5-2.1,5.6-2.3c2.2,0,3.2,1.5,3.2,4.8v13.8h6.4V39.8c0-6.3-3.9-8.6-7.5-8.6
		c-2.9,0.1-5.7,1.1-8,2.8l-0.6-2.3h-5.4v23.6h6.4V39z"/>
	<path class="st0" d="M191.3,49v-9.1c0-5.8-3.1-8.6-9.4-8.6c-3.3-0.1-6.5,0.8-9.2,2.6l-0.2,0.1l2.1,4.1l0.2-0.1
		c1.8-1.1,3.8-1.7,5.8-1.7c1.5,0,4.1,0.5,4.1,3.7v0.3l-3.9,0.1c-6.3,0.2-9.9,3.1-9.9,7.8c-0.1,4.1,3.1,7.5,7.2,7.7
		c0.1,0,0.2,0,0.3,0c0.1,0,0.3,0,0.4,0c2.4,0,4.8-0.8,6.6-2.4l0.9,1.9h5.4l-0.1-0.3C191.4,54,191.3,52.4,191.3,49z M184.8,44.8v4.6
		c-1.1,0.9-2.5,1.4-3.9,1.3c-2.2,0-3.5-1.1-3.5-3c0-1.2,0.5-2.8,4.4-2.9L184.8,44.8z"/>
	<path class="st0" d="M34.1,44.3c-0.4-1.5-0.8-3.3-1.2-5.1c-0.7-3-1.2-6.1-1.5-9.2c-0.1-0.9-0.1-1.7-0.1-2.5
		c-0.1-1.4-0.1-2.6-0.1-3.7c0-1.9,0.2-3.9,0.4-5.8c0.2-1.9,0.6-3.6,1-5.1l0.3-1.5l-0.5,0.4c-0.4,0.3-0.7,0.6-1.1,0.8l-0.1,0l0,0.1
		c-0.6,1.7-1,3.4-1.4,5.2c-0.3,1.5-0.6,3.1-0.8,4.7c-1.6-0.7-3.2-1.5-4.6-2.5L24,19.8l0.1,3l0.1,0.1c1.4,1.2,2.9,2.3,4.5,3.2
		c-0.2,3-0.3,6-0.1,9c0.1,1,0.1,2,0.2,2.8c-3.3-0.9-6.5-2.3-9.4-4.2l-0.4-0.3l0.1,3l0.1,0.1c3.1,2.6,6.6,4.6,10.3,6.2
		c0.3,2.4,0.8,4.9,1.2,7.3c0.1,0.9,0.3,1.8,0.4,2.7c-5.3-0.7-10.5-2.6-15-5.4l-0.4-0.2l0.1,3l0.1,0.1c4.7,3.9,10.2,6.7,16.1,8.1
		c1.2,7.8,1.1,15.6-0.4,23.4L31.3,82l6.3-3.7l0-0.1c2.1-11.6-0.5-21.9-3-31.8L34.1,44.3z"/>
	<path class="st0" d="M27.5,66.5c-3.9-0.2-13.2-5-17.9-10.1C7.4,54,6.4,51.9,6.5,50l0-0.1l-0.1-0.2l0.1-0.1
		c2.4-3.9,3.6-8.3,3.6-12.8c0-1.8-0.3-3.6-0.7-5.4l0-0.1l0.1-0.1c3.6-2.8,8.2-8.2,9.5-17.5l0-0.1l0.1,0c4.9-1.1,9.6-3.3,13.5-6.6
		l0.1-0.1l0.1,0.1c3.9,3.2,8.5,5.4,13.4,6.6c0.6,6.5,4.5,9.4,7.7,10.7l0.1,0.1l1.5-1.3l-0.3-0.2c-1.4-1-4.5-4-4.6-11.4
		c0,0,0-1.2,0-1.7V9.6l-0.2,0c-0.5-0.1-1.6-0.2-1.6-0.2C43.3,8.5,38.3,6,34.3,2.2c0,0-1-1-1.4-1.4l-0.2-0.2l-0.2,0.2
		C32,1.2,31,2.2,31,2.2C27,6,22,8.5,16.5,9.3c0,0-1.2,0.2-1.6,0.2l-0.2,0l0,0.2c0,0.5-0.1,1.7-0.1,1.7c-0.8,10-6,14.9-9.1,16.9
		c0,0-0.9,0.6-1.2,0.8l-0.1,0.1l0,0.2c0.1,0.4,0.4,1.4,0.4,1.4c0.5,1.9,0.8,3.9,0.9,5.9c0,4.2-1.2,8.1-3.6,11.5l-0.8,1.1l0.6,1.2
		c4.9,10.3,18.9,17.3,26.1,17.5l0.3,0l-0.2-1.8L27.5,66.5z"/>
	<polygon class="st0" points="43.8,72.2 43.8,74.1 47.1,74.1 47.1,84.2 49.1,84.2 49.1,74.1 52.4,74.1 52.4,72.2 	"/>
	<path class="st0" d="M57.9,75.2c-0.9,0-1.9,0.3-2.6,0.8v-4.7h-2v12.9h2V78c0.6-0.6,1.4-1,2.3-1c1.3,0,1.4,0.9,1.4,1.9v5.3h2v-5.6
		C61,76.3,60,75.2,57.9,75.2z"/>
	<path class="st0" d="M70.2,79.9c0-3-1.4-4.7-3.8-4.7c-2.5,0-4,1.7-4,4.6c0,3,1.6,4.6,4.4,4.6c0,0,0.1,0,0.1,0
		c0.9,0,1.8-0.2,2.6-0.6l0.2-0.1l-0.8-1.5l-0.2,0.1c-0.6,0.3-1.2,0.4-1.9,0.4c0,0,0,0,0,0c-0.1,0-0.3,0-0.4,0
		c-0.6-0.1-1.1-0.3-1.5-0.8c-0.3-0.4-0.5-0.9-0.5-1.4h5.9L70.2,79.9z M64.4,78.7c0.2-0.9,0.6-1.8,2-1.8c1,0,1.6,0.6,1.8,1.8H64.4z"
		/>
	<polygon class="st0" points="78.1,78.9 81.9,78.9 81.9,77 78.1,77 78.1,74.1 82.4,74.1 82.4,72.2 76,72.2 76,84.2 82.6,84.2 
		82.6,82.3 78.1,82.3 	"/>
	<path class="st0" d="M88.8,75.2C88.8,75.2,88.8,75.2,88.8,75.2c-1,0-2,0.3-2.7,0.9L86,75.3h-1.8v8.9h2V78c0.6-0.6,1.4-1,2.2-1
		c1.3,0,1.5,0.9,1.5,1.9v5.3h2v-5.6c0-1.1-0.2-2-0.7-2.6C90.6,75.5,89.8,75.2,88.8,75.2z"/>
	<path class="st0" d="M101,79.9c0-3-1.4-4.7-3.8-4.7c-2.5,0-4.1,1.7-4.1,4.6c0,3,1.6,4.6,4.4,4.6c0,0,0.1,0,0.1,0
		c0.9,0,1.8-0.2,2.6-0.6l0.2-0.1l-0.8-1.5l-0.2,0.1c-0.6,0.3-1.2,0.4-1.9,0.4c0,0,0,0,0,0c-0.1,0-0.3,0-0.4,0
		c-0.6-0.1-1.1-0.3-1.5-0.8c-0.3-0.4-0.5-0.9-0.5-1.4h5.9L101,79.9z M95.2,78.7c0.2-0.9,0.6-1.8,2-1.8c1,0,1.6,0.6,1.8,1.8H95.2z"/>
	<path class="st0" d="M107.5,75.3c-0.3-0.1-0.7-0.1-1-0.1c-0.8,0-1.6,0.3-2.1,0.9l-0.1-0.7h-1.8v8.9h2v-6c0.3-0.8,1.1-1.3,1.9-1.3
		c0.2,0,0.5,0,0.7,0.1l0.2,0.1l0.4-1.8L107.5,75.3z"/>
	<path class="st0" d="M120.8,81.3l-2.5-6h-1.9v-1l-0.3,0.1c-1,0.2-2,0.5-2.9,1c-0.4-0.1-0.9-0.2-1.3-0.2c-2.3,0-3.8,1.4-3.8,3.5
		c-0.1,1,0.4,2,1.2,2.7c-0.5,0.4-0.8,0.9-0.8,1.6c0,0.3,0.1,0.7,0.4,0.9c-0.7,0.5-1.1,1.2-1.2,2.1c0,1.6,1.4,2.3,4.4,2.3
		c3.7,0,4.5-1.5,4.5-2.8c0-1.9-1.9-2.3-3.7-2.4L112,83c-1-0.1-1.5-0.2-1.5-0.4c0-0.2,0.1-0.4,0.3-0.5c0.3,0.1,0.7,0.1,1,0.1
		c2.3,0,3.8-1.4,3.8-3.5c0-0.8-0.2-1.6-0.8-2.3l1.6-0.1v-0.7l3.4,8.3l-0.5,1.3c-0.4,1-0.8,1.4-1.5,1.4c-0.3,0-0.5,0-0.8-0.1
		l-0.4-0.1l0.6,1.9l0.1,0c0.3,0.1,0.6,0.1,0.9,0.1c1.2,0,2.2-0.8,2.9-2.5l4.1-10.4h-2L120.8,81.3z M113.7,79.1
		c-0.1,0.4-0.3,0.8-0.6,1c-0.3,0.3-0.7,0.4-1.2,0.3c-0.1,0-0.2,0-0.2,0c-0.4,0-0.8-0.2-1.1-0.6s-0.4-0.8-0.4-1.2l0,0
		c0-1,0.8-1.8,1.8-1.8c0,0,0,0,0,0c0.5,0,0.9,0.2,1.2,0.5c0.3,0.3,0.5,0.8,0.5,1.3C113.7,78.8,113.7,79,113.7,79.1z M114.5,85.6
		c0,0.3,0,1-2.4,1c-2.5,0-2.5-0.5-2.5-0.9c0-0.5,0.2-0.9,0.6-1.1c0.5,0.1,1.1,0.2,1.6,0.2l0.8,0.1C114.1,85,114.5,85.2,114.5,85.6
		L114.5,85.6z"/>
	<path class="st0" d="M138.6,81.9c0.6-1.3,0.9-2.8,0.8-4.3l0-0.2h-1.9l0,0.3c0,1-0.1,1.9-0.4,2.8l-2.4-2.5c-1.1-1.2-1.7-1.8-1.7-2.6
		c0-0.3,0-1.3,2-1.3c0,0,0,0,0,0c0.8,0,1.5,0.1,2.2,0.4l0.2,0.1l0.8-1.7l-0.2-0.1c-1-0.4-2-0.6-3.1-0.6c-2.5,0-4.1,1.3-4.1,3.2
		c0,0.8,0.3,1.5,0.7,2.2c-1.1,0.7-1.7,1.9-1.7,3.3c0,2.2,1.8,3.8,4.4,3.8c0.1,0,0.1,0,0.2,0c1,0,2-0.3,2.8-1
		c0.8,0.6,1.8,0.9,2.7,0.8h0.4v-2l-0.5,0C139.5,82.3,139,82.1,138.6,81.9z M136,82.1c-0.5,0.3-1.1,0.4-1.6,0.4h0
		c-1.5,0-2.3-0.7-2.3-2c0-0.7,0.3-1.3,0.7-1.8L136,82.1z"/>
	<polygon class="st0" points="159.4,72.2 156.8,81 154.4,72.2 152.4,72.2 149.9,81 147.4,72.2 145.3,72.2 149,84.2 150.8,84.2 
		153.4,75.4 155.9,84.2 157.7,84.2 161.5,72.2 	"/>
	<path class="st0" d="M168.5,82.7v-4.5c0-1.9-1.2-3-3.3-3c0,0,0,0,0,0c-1.1,0-2.3,0.3-3.2,0.9l-0.2,0.1l0.8,1.4l0.2-0.1
		c0.7-0.4,1.4-0.5,2.2-0.5c1.6,0,1.6,0.8,1.6,1.6v0c-0.5-0.1-0.9-0.1-1.4-0.1c-3.5,0-4,1.9-4,3c0,0.1,0,0.3,0,0.4
		c0.1,0.7,0.4,1.4,1,1.9c0.5,0.4,1.1,0.7,1.8,0.7c0.1,0,0.2,0,0.2,0c0.9,0,1.8-0.3,2.5-0.8l0.2,0.6h1.8l0-0.3
		C168.5,83.5,168.5,83.1,168.5,82.7z M166.5,80.2v1.6c-0.5,0.5-1.2,0.7-1.9,0.8h-0.1c-0.5,0-1.4-0.1-1.4-1.2c0-0.9,0.7-1.3,2.1-1.3
		C165.7,80.1,166.1,80.2,166.5,80.2z"/>
	<path class="st0" d="M174.6,82.5c-0.3,0.1-0.6,0.1-0.9,0.1c-0.8,0-1.1-0.1-1.1-1.4v-4.2h2.2l0.2-1.7h-2.5v-1.8h-2v1.8h-1.2v1.7h1.2
		v4.3c0,2.6,1.2,3.1,3,3.1c0.4,0,0.9-0.1,1.3-0.2l0.2-0.1l-0.3-1.7L174.6,82.5z"/>
	<path class="st0" d="M183.4,79.9c0-3-1.4-4.7-3.8-4.7c-2.5,0-4,1.7-4,4.6c0,3,1.6,4.6,4.4,4.6c0,0,0.1,0,0.1,0
		c0.9,0,1.8-0.2,2.6-0.6l0.2-0.1l-0.8-1.5l-0.2,0.1c-0.6,0.3-1.2,0.4-1.9,0.4h0c-0.1,0-0.3,0-0.4,0c-1.2-0.1-2-1.1-2.1-2.2h5.9
		L183.4,79.9z M179.6,76.9c1,0,1.6,0.6,1.8,1.8h-3.8C177.8,77.8,178.3,76.9,179.6,76.9z"/>
	<path class="st0" d="M188.9,75.2c-0.8,0-1.6,0.3-2.1,0.9l-0.1-0.7h-1.8v8.9h2v-6c0.3-0.8,1.1-1.3,1.9-1.3c0.2,0,0.5,0,0.7,0.1
		l0.2,0.1l0.4-1.8l-0.2-0.1C189.6,75.2,189.2,75.2,188.9,75.2z"/>
	<polygon class="st0" points="195.4,84.2 197.5,84.2 197.5,78.9 201.3,78.9 201.3,77 197.5,77 197.5,74.1 201.8,74.1 201.8,72.2 
		195.4,72.2 	"/>
	<path class="st0" d="M207,75.2c-2.6,0-4.3,1.8-4.3,4.6c0,2.9,1.6,4.6,4.3,4.6c2.6,0,4.3-1.8,4.3-4.6S209.7,75.2,207,75.2z
		 M209.3,79.8c0,1.8-0.8,2.9-2.2,2.9s-2.2-1-2.2-2.9c0-1.9,0.8-2.9,2.2-2.9C208.5,76.9,209.3,77.9,209.3,79.8z"/>
	<path class="st0" d="M220.2,82.7v-7.4h-2v6.3c-0.6,0.6-1.3,1-2.2,1c-1.2,0-1.3-0.8-1.3-1.9v-5.3h-2v5.6c0,2.9,1.6,3.5,3,3.5
		c0,0,0,0,0,0c1,0,1.9-0.3,2.7-0.9l0.2,0.8h1.8l0-0.3C220.2,83.5,220.2,83.1,220.2,82.7z"/>
	<path class="st0" d="M226.6,75.2C226.6,75.2,226.6,75.2,226.6,75.2c-1,0-2,0.3-2.7,0.9l-0.1-0.8h-1.8v8.9h2V78c0.6-0.6,1.4-1,2.2-1
		c1.3,0,1.5,0.9,1.5,1.9v5.3h2v-5.6c0-1.1-0.2-2-0.7-2.6C228.4,75.5,227.6,75.2,226.6,75.2z"/>
	<path class="st0" d="M236.8,75.3c-0.5-0.1-1.1-0.2-1.6-0.2c-2.7,0-4.2,1.8-4.2,4.7c0,2.9,1.6,4.5,4.4,4.5c1.1,0,2.2-0.2,3.3-0.6
		l0.2-0.1V71.3h-2V75.3z M235.4,76.9c0.5,0,0.9,0.1,1.4,0.2v5.4c-0.4,0.1-0.9,0.2-1.4,0.2c-1.6,0-2.4-1-2.4-2.9
		C233,77.8,233.8,76.9,235.4,76.9z"/>
	<path class="st0" d="M247.5,82.7v-4.5c0-1.9-1.2-3-3.3-3c0,0,0,0,0,0c-1.1,0-2.3,0.3-3.2,0.9l-0.2,0.1l0.8,1.4l0.2-0.1
		c0.7-0.4,1.4-0.5,2.2-0.5c1.6,0,1.6,0.8,1.6,1.6v0c-0.5-0.1-0.9-0.1-1.4-0.1c-3.5,0-4,1.9-4,3c0,0.1,0,0.3,0,0.4
		c0.1,0.7,0.4,1.4,1,1.9c0.5,0.4,1.1,0.7,1.8,0.7c0.1,0,0.2,0,0.2,0c0.9,0,1.8-0.3,2.5-0.8l0.2,0.6h1.8l0-0.3
		C247.5,83.5,247.5,83.1,247.5,82.7z M245.5,80.2v1.6c-0.5,0.5-1.2,0.7-1.9,0.8h-0.1c-0.5,0-1.4-0.1-1.4-1.2c0-0.9,0.7-1.3,2.1-1.3
		C244.7,80.1,245.1,80.2,245.5,80.2z"/>
	<path class="st0" d="M253.6,82.5c-0.3,0.1-0.6,0.1-0.9,0.1c-0.8,0-1.1-0.1-1.1-1.4v-4.2h2.2l0.2-1.7h-2.5v-1.8h-2v1.8h-1.2v1.7h1.2
		v4.3c0,2.6,1.2,3.1,3,3.1c0.4,0,0.9-0.1,1.3-0.2l0.2-0.1l-0.3-1.7L253.6,82.5z"/>
	<rect x="255.2" y="75.3" class="st0" width="2" height="8.9"/>
	<path class="st0" d="M256.1,72c-0.3,0-0.6,0.1-0.8,0.3s-0.3,0.5-0.3,0.8v0c0,0.3,0.1,0.6,0.4,0.8c0.2,0.2,0.5,0.3,0.8,0.3
		c0,0,0,0,0,0c0.6,0,1.1-0.5,1.1-1.2c0-0.3-0.1-0.6-0.3-0.8S256.4,72,256.1,72z"/>
	<path class="st0" d="M262.9,75.2c-2.6,0-4.3,1.8-4.3,4.6c0,2.9,1.6,4.6,4.3,4.6c2.6,0,4.3-1.8,4.3-4.6S265.5,75.2,262.9,75.2z
		 M265.1,79.8c0,1.8-0.8,2.9-2.2,2.9c-1.4,0-2.2-1-2.2-2.9c0-1.9,0.8-2.9,2.2-2.9C264.3,76.9,265.1,77.9,265.1,79.8L265.1,79.8z"/>
	<path class="st0" d="M273.2,75.2C273.2,75.2,273.2,75.2,273.2,75.2c-1,0-2,0.3-2.7,0.9l-0.1-0.8h-1.8v8.9h2V78c0.6-0.6,1.4-1,2.2-1
		c1.3,0,1.5,0.9,1.5,1.9v5.3h2v-5.6c0-1.1-0.2-2-0.7-2.6C275,75.5,274.2,75.2,273.2,75.2z"/>
</g>
</svg>
