<?xml version="1.0" encoding="utf-8"?>
<!-- Generator: Adobe Illustrator 27.0.0, SVG Export Plug-In . SVG Version: 6.00 Build 0)  -->
<svg version="1.1"
	 id="Layer_1" xmlns:svg="http://www.w3.org/2000/svg" xmlns:rdf="http://www.w3.org/1999/02/22-rdf-syntax-ns#" xmlns:dc="http://purl.org/dc/elements/1.1/" xmlns:cc="http://creativecommons.org/ns#" xmlns:inkscape="http://www.inkscape.org/namespaces/inkscape" xmlns:sodipodi="http://sodipodi.sourceforge.net/DTD/sodipodi-0.dtd" inkscape:version="1.0.2 (e86c870879, 2021-01-15, custom)" sodipodi:docname="Hisense (2012).svg"
	 xmlns="http://www.w3.org/2000/svg" xmlns:xlink="http://www.w3.org/1999/xlink" x="0px" y="0px" viewBox="0 0 1476.3 234"
	 style="enable-background:new 0 0 1476.3 234;" xml:space="preserve">
<style type="text/css">
	.st0{fill:#FFFFFF;}
</style>
<sodipodi:namedview  bordercolor="#666666" borderopacity="1" fit-margin-bottom="0" fit-margin-left="0" fit-margin-right="0" fit-margin-top="0" gridtolerance="10" guidetolerance="10" id="namedview25" inkscape:current-layer="Layer_1" inkscape:cx="736.38686" inkscape:cy="142.50307" inkscape:pageopacity="0" inkscape:pageshadow="2" inkscape:window-height="837" inkscape:window-maximized="1" inkscape:window-width="1440" inkscape:window-x="-8" inkscape:window-y="-8" inkscape:zoom="0.82106903" objecttolerance="10" pagecolor="#ffffff" showgrid="false">
	</sodipodi:namedview>
<g id="g89">
	<path id="path75" class="st0" d="M266.1,0l-17.7,230.4h-72.3l8-102H80.5l-8,102H0L17.9,0h53.5c5.9,0,17.9,0.6,17.7,14.8l-5.3,65.8
		h103.7L193.9,0L266.1,0z"/>
	<path id="path73" class="st0" d="M1186.4,130.7c32.2,14.5,65.1,28.5,60.3,59.9c-5.5,34.4-55.8,40.9-97.1,40.9
		c-3.2,0-6.5-0.2-9.9-0.2c-56.7-1.7-85.1-6.1-85.1-6.1l2.3-37.3c0,0,39.2,7.2,76.3,8.4c21.1,0.6,36.5-0.6,36.9-7.8
		c0.4-6.5-10.1-9.9-32.5-18.8l-19.6-7.8c-23.6-9.9-62.2-24-60.3-56.3c1.9-31.6,40.2-41.5,62.8-44.7c13.3-1.9,27.2-2.5,46.6-2.3
		c42.6,0.6,78.4,8.2,78.4,8.2l-3.4,34.8c0,0-37.9-8.2-76.1-8.2c-24.2,0.2-32.5,3-33.7,7c-2.3,7.4,11.2,12.6,28.9,19.8L1186.4,130.7"
		/>
	<path id="path71" class="st0" d="M355.1,0c11.4,0,15.4,4.8,14.5,14.8c-0.2,4.2-2.1,29.3-2.1,29.3h-70.8L300.1,0H355.1 M366.2,62.8
		l-13.1,167.6h-70.8l12.9-167.6H366.2z"/>
	<path id="path69" class="st0" d="M968.1,120.2c1.5-24-16.9-23.8-23.2-24c-18.5-0.8-42.1,2.5-42.1,2.5l-8,131.3h-66l10.3-161.9
		c0,0,52.3-6.1,93.4-7.6c4.8-0.2,9.7-0.2,14.1-0.2c17.3,0,29.7,1.1,31.4,1.3c23.8,2.3,59.6,6.1,56.5,56.9l-7.2,111.7h-66.2
		C961.1,230.2,966.2,149.9,968.1,120.2"/>
	<path id="path65" class="st0" d="M1474.4,160.2c14.1-80.7-57.3-96.5-74.2-99.1c-6.1-0.8-12.9-1.5-20-1.5
		c-75.2-0.6-112.7,46.8-115.9,86c-3,35.6,10.5,88.3,121,88.3c40.5,0,66.6-6.1,77.8-9.3c1.3-7.4,3.6-22.8,5.5-34.6
		c-5.5,1.1-38.6,8.2-74.6,8.2h-3.4c-50.2-1.9-60.3-26.3-60.3-37.7V160L1474.4,160.2z M1333.1,128.2c3.2-17.7,16.9-35.6,45.7-35.8
		c42.1,0.4,39.4,35.8,39.4,35.8H1333.1z"/>
	<path id="path61" class="st0" d="M807.3,160.2c14.3-80.7-57.3-96.5-74.2-99.1c-6.1-0.8-12.9-1.5-20-1.5
		c-75.2-0.6-112.9,46.8-116.1,86c-3,35.6,10.5,88.3,121,88.3c40.7,0,66.6-6.1,77.8-9.3c1.3-7.4,3.6-22.8,5.5-34.6
		c-5.5,1.1-38.6,8.2-74.6,8.2h-3.4c-50.2-1.9-60.3-26.3-60.3-37.7V160L807.3,160.2z M665.7,128.2c3.2-17.7,16.9-35.6,45.7-35.8
		c42.1,0.4,39.4,35.8,39.4,35.8H665.7z"/>
	<path id="path31" class="st0" d="M518.2,130.7l-25.1-10.3c-17.7-7-31.2-12.2-28.9-19.6c1.3-4.2,9.5-7,33.7-7
		c38.1,0,76.1,8.2,76.1,8.2l3.4-34.8c0,0-35.8-7.8-78.4-8.2c-19.4-0.2-33.3,0.4-46.6,2.3c-22.8,3.2-60.9,13.1-62.8,44.7
		c-1.9,32.5,36.7,46.6,60.3,56.3l19.6,7.8c22.3,8.9,32.9,12.2,32.5,18.8c-0.4,7.4-15.8,8.4-36.9,7.8c-37.1-1.3-76.3-8.4-76.3-8.4
		l-2.3,37.3c0,0,28.4,4.6,85.1,6.1h9.9c41.3,0,91.7-6.5,97.1-40.9C583.7,159.1,550.4,145.2,518.2,130.7"/>
</g>
</svg>
