<?xml version="1.0" encoding="UTF-8"?>
<svg id="Layer_2" data-name="Layer 2" xmlns="http://www.w3.org/2000/svg" viewBox="0 0 104.91 104.91">
  <defs>
    <style>
      .cls-1 {
        fill: #fff;
      }

      .cls-2 {
        fill: none;
      }
    </style>
  </defs>
  <g id="Layer_1-2" data-name="Layer 1">
    <g>
      <path class="cls-1" d="M4.98,85.83c-.57,.57-.93,1.26-1.09,1.99h5.28v1.82H3.88c.17,.73,.53,1.42,1.09,1.99,.78,.77,1.81,1.2,2.9,1.2,.44,0,.87-.07,1.28-.2l1.39,1.39c-.82,.42-1.74,.64-2.67,.64h0c-1.58,0-3.07-.62-4.19-1.74-2.31-2.31-2.31-6.07,0-8.38,1.12-1.12,2.61-1.74,4.19-1.74,.93,0,1.85,.22,2.67,.64l-1.39,1.39c-.41-.14-.84-.2-1.28-.2-1.1,0-2.13,.43-2.9,1.2Zm12.6,2.2l-1.32-.27c-1.52-.3-2.22-.85-2.22-1.74h0c0-1.05,.98-1.74,2.51-1.74s2.44,.65,2.61,1.76l.02,.1h1.73v-.12c-.13-1.91-1.86-3.22-4.32-3.22s-4.32,1.34-4.33,3.27h0c0,1.71,1.14,2.73,3.49,3.21l1.32,.27c1.61,.33,2.27,.85,2.27,1.81h0c0,1.12-1.04,1.82-2.68,1.82s-2.77-.67-2.94-1.76v-.1h-1.75v.11c.15,2.01,1.94,3.23,4.61,3.23,2.83,0,4.56-1.31,4.56-3.39h0c0-1.78-1.06-2.73-3.54-3.24Zm4.21-3.57h3.72v10.01h1.77v-10.01h3.71v-1.46h-9.2v1.46Zm16.71,5.31l2.72,4.7h-2.05l-2.49-4.45h-2.66v4.45h-1.77v-11.47h4.64c2.42,0,3.96,1.36,3.96,3.48v.02c0,1.56-.9,2.8-2.36,3.27Zm.54-3.25v-.02c0-1.3-.9-2.08-2.38-2.08h-2.64v4.2h2.7c1.47,0,2.31-.76,2.31-2.1Zm9.28-3.52l4.41,11.47h-1.86l-1.14-3.16h-4.69l-1.14,3.16h-1.86l4.41-11.47h1.87Zm.92,6.95l-1.84-5.11h-.04l-1.84,5.11h3.72Zm2.28-5.49h3.72v10.01h1.77v-10.01h3.72v-1.46h-9.2v1.46Zm10.47,10.01h7.59v-1.46h-5.83v-3.67h5.52v-1.42h-5.52v-3.45h5.83v-1.46h-7.59v11.47Zm40.96-20.06v20.18h-4.99v-3h-6.02l-2.03,3h-6.47l-5.17-8.53v8.53h-4.99v-20.18h4.99v8.53l6.26-8.53h5.9l-7.14,10.09,3.7,5.64,11.03-15.72h4.93Zm-4.99,8.26l-3.21,4.75h3.21v-4.75Z"/>
      <path class="cls-1" d="M52.46,10.26v10.41h11.15l-27.39,27.39c-1.44-2.64-2.27-5.66-2.27-8.88,0-7.41,4.36-13.81,10.66-16.76V11.34c-12.16,3.42-21.07,14.59-21.07,27.84,0,15.97,12.95,28.92,28.92,28.92,13.25,0,24.42-8.91,27.84-21.07h-11.08c-2.96,6.3-9.35,10.66-16.76,10.66-3.22,0-6.24-.82-8.88-2.27l27.39-27.39v11.15h10.41V10.26h-28.92Z"/>
      <rect class="cls-2" y="0" width="104.91" height="104.91"/>
    </g>
  </g>
</svg>
