<svg width="253" height="252" viewBox="0 0 253 252" fill="none" xmlns="http://www.w3.org/2000/svg">
<g filter="url(#filter0_d_39_196)">
<path d="M154.833 93.6667V72.4167L176.083 51.1667L183.166 65.3333L197.333 72.4167L176.083 93.6667H154.833ZM154.833 93.6667L126.5 122M197.333 122C197.333 161.12 165.62 192.833 126.5 192.833C87.3799 192.833 55.6667 161.12 55.6667 122C55.6667 82.8798 87.3799 51.1667 126.5 51.1667M161.917 122C161.917 141.56 146.06 157.417 126.5 157.417C106.94 157.417 91.0834 141.56 91.0834 122C91.0834 102.44 106.94 86.5833 126.5 86.5833" stroke="white" stroke-width="10" stroke-linecap="round" stroke-linejoin="round"/>
</g>
<defs>
<filter id="filter0_d_39_196" x="-8.5" y="-9" width="270" height="270" filterUnits="userSpaceOnUse" color-interpolation-filters="sRGB">
<feFlood flood-opacity="0" result="BackgroundImageFix"/>
<feColorMatrix in="SourceAlpha" type="matrix" values="0 0 0 0 0 0 0 0 0 0 0 0 0 0 0 0 0 0 127 0" result="hardAlpha"/>
<feOffset dy="4"/>
<feGaussianBlur stdDeviation="25"/>
<feComposite in2="hardAlpha" operator="out"/>
<feColorMatrix type="matrix" values="0 0 0 0 0 0 0 0 0 0 0 0 0 0 0 0 0 0 0.25 0"/>
<feBlend mode="normal" in2="BackgroundImageFix" result="effect1_dropShadow_39_196"/>
<feBlend mode="normal" in="SourceGraphic" in2="effect1_dropShadow_39_196" result="shape"/>
</filter>
</defs>
</svg>
