<?xml version="1.0" encoding="utf-8"?>
<!-- Generator: Adobe Illustrator 27.0.0, SVG Export Plug-In . SVG Version: 6.00 Build 0)  -->
<svg version="1.1" id="Layer_1" xmlns="http://www.w3.org/2000/svg" xmlns:xlink="http://www.w3.org/1999/xlink" x="0px" y="0px"
	 viewBox="0 0 501.3 505" style="enable-background:new 0 0 501.3 505;" xml:space="preserve">
<style type="text/css">
	.st0{fill:#FFFFFF;}
</style>
<path class="st0" d="M374.3,502.2c-49.2-2.6-94-28.6-128.1-62.9c-38.1-38.3-63.6-87.3-80.5-138.1c-8.8-26.9-15.6-54.3-20.4-82.1
	c-4.9-26.9-8-55-22.1-79c-23-39-67-57.3-108.7-69.7C9.7,68.9,4.9,67.4,0,66.1v2.6c42.1,11.9,88.3,26.9,115.1,63.7
	c16.4,22.5,21.2,49.8,25.8,76.7c4.8,28.1,10.8,55.9,19.2,83c15.9,51.3,40,101,76.6,140.9c32.5,35.5,75.7,63.8,124.1,70.4
	c46.5,6.4,95.3-7.7,129.9-39.7c3.7-3.4,7.2-7,10.5-10.8v-3.9c0,0-0.1,0-0.1,0.1C470,485.7,422.2,504.8,374.3,502.2z"/>
<path class="st0" d="M114.6,119.5c16.7,21.1,21.8,47.4,26.5,73.2c4.9,26.9,11.1,53.4,19.7,79.4c16.4,49,41.3,96,78,132.9
	c33.2,33.3,76.2,58.6,123.5,64.4c45.4,5.6,93.4-7.2,128.2-37.3c3.8-3.3,7.3-6.7,10.7-10.4v-3.6C469.7,452.8,422.4,470,376,468
	c-48.2-2-93-25.3-127.9-57.6c-38-35.4-64.3-81.2-81.6-129.8c-9-25.7-16.1-52-21-78.8c-5-25.8-8.2-52.6-22.6-75.2
	C99.1,89.5,55,73,14.5,61.6C9.6,60.2,4.8,59,0,57.6v2.6C41.3,71.1,87,84.8,114.6,119.5z"/>
<path class="st0" d="M114.3,107.1c7.6,9,13.5,19.2,17.4,30.3c4.6,12.7,7,26.1,9.6,39.2c5,25.6,11.3,50.8,20.1,75.3
	c16.8,46.7,42.4,90.6,79.1,124.6c34,31.4,77.3,54.3,123.8,59.1c44.5,4.5,91.6-7,126.5-35.4c3.6-3,7.1-6.1,10.4-9.3v-3.4
	c-32,32.8-78.6,48.1-123.8,46.7c-47.1-1.5-92-22.1-127.5-52.4c-38.1-32.5-65.3-75.7-83.2-122.1c-9.1-24-16.2-48.7-21.2-73.9
	c-5.1-24.8-8.5-50.6-23.1-71.9C98,78.5,54.2,63.7,14.8,53.3C9.8,52,4.9,50.7,0,49.6V52c21.1,5.2,42.3,10.9,62.4,19.5
	C81.8,79.8,100.5,90.9,114.3,107.1z"/>
<path class="st0" d="M113.5,94.1c7.8,8.3,13.9,18,17.9,28.5c4.7,11.9,7.2,24.4,9.7,36.9c5.1,24.3,11.5,48.3,20.6,71.4
	c17.4,44.8,44,86,81,117.1c34.8,29.2,77.9,49.4,123.4,53.3c43.7,3.7,90.2-6.7,125.3-33.7c3.4-2.6,6.7-5.4,9.8-8.4v-3.1
	c-32.3,30.9-78.4,44.6-122.5,43.6c-46.2-1-90.8-19.2-127-47.3c-38-29.6-66.1-69.8-84.6-114.1c-9.4-22.9-16.8-46.7-22.1-70.9
	c-5.2-23.4-8.8-47.8-23.7-67.4c-11.9-15.7-28.6-26.9-46.3-35.3c-19.3-9.1-40.1-15.1-60.8-20.1C9.6,43.5,4.8,42.4,0,41.3v2.4
	c20.8,4.8,41.6,9.9,61.4,17.7C80.5,68.9,99.2,79,113.5,94.1z"/>
<path class="st0" d="M113.2,81.7c7.6,7.4,13.7,16.2,17.9,25.8c5,11.4,7.6,23.6,10.2,35.7c5,22.9,12,45.5,21,67.2
	c18,42.4,45.5,80.5,82.3,108.7c35.5,27.3,78.6,45,123.5,48.2c42.5,3,88-6.3,123-31.3c3.5-2.5,6.8-5.2,10.1-8v-2.8
	c-32.4,28.9-77.5,41-120.3,40.5c-45.3-0.5-89.6-16.2-126.6-42c-37.9-26.6-67-63.6-86.3-105.6c-9.8-21.6-17.5-44.2-22.9-67.3
	c-5.3-22.2-9.1-45.1-24-63.2c-12.2-15-29.2-25.3-46.7-32.8c-19.3-8.3-39.7-13.7-60.2-18.4C9.6,35.1,4.8,34,0,33v2.2
	c20.5,4.4,41,9.1,60.8,16.2C79.7,58.4,98.6,67.5,113.2,81.7z"/>
<path class="st0" d="M112.9,69.5c7.4,6.6,13.5,14.4,17.8,23.2c5.3,10.8,8,22.6,10.8,34.2c5.2,21.7,12.4,42.9,21.8,63.2
	c18.8,40,47.2,74.9,83.8,100c36.2,25,79.2,40.4,123.2,42.9c41.6,2.3,86.2-6,121.3-29.3c3.4-2.2,6.6-4.6,9.7-7.1v-2.7
	c-32.8,26.8-77.1,37.5-118.9,37.3c-44.4-0.1-88.3-13.6-125.9-37.3c-37.7-23.7-67.7-57.6-87.8-97.3c-10-20.1-17.9-41.2-23.5-63
	c-2.9-11-5.1-22.3-9-33c-3.4-9.7-8.8-18.7-15.7-26.5C108,60.5,91.2,51.4,74.1,44.6C55,36.9,34.7,32,14.4,27.6
	C9.6,26.7,4.8,25.7,0,24.7v2.2c20.4,4.1,40.8,8.4,60.6,15C79.2,48.1,98,56.3,112.9,69.5z"/>
<path class="st0" d="M112,56.7c7.6,5.9,14,13.2,18.6,21.7c5.4,9.8,8.1,20.7,10.9,31.4c5.3,20.5,12.8,40.4,22.5,59.3
	c19.6,37.7,49.1,69.4,85.3,91.7c36.8,22.7,78.7,35.8,121.9,37.9c41,1.9,84.7-5.3,120.2-26.7c3.4-2.1,6.7-4.3,9.9-6.6v-2.5
	c-32.9,24.5-76,33.8-116.4,34.1c-43.9,0.1-87.1-11-125.4-32.5c-37.4-20.8-68.5-51.5-89.6-88.7c-10.5-18.8-18.7-38.7-24.5-59.4
	c-2.9-10.4-5.3-21-9.3-31.1c-3.6-9-9-17.1-15.8-23.9C107.5,48.9,90.7,40.7,74,34.6c-19.4-7.1-39.8-11.5-60-15.5
	c-4.7-0.9-9.4-1.7-14-2.6v1.9c20.3,3.7,40.5,7.6,60.3,13.6C78.5,37.7,97,44.8,112,56.7z"/>
<path class="st0" d="M111.4,44.3c7.5,5.1,13.9,11.6,18.7,19.3c5.7,9.2,8.6,19.7,11.6,29.9c5.5,19.2,13.3,37.6,23.2,54.9
	c20.6,35.4,51.1,63.6,87,83.1c37.4,20.3,79.1,31.6,121.8,33c39.9,1.4,82.2-5,117.5-24.2c3.4-1.9,6.8-3.9,10.1-6.1v-2.3
	c-33.1,22.4-75.2,30.4-114.5,30.9c-43.3,0.5-86.2-9.2-125-28.4c-36.8-18.3-68.8-45.3-91-80.1c-10.8-17.2-19.3-35.7-25.3-55
	c-3-9.6-5.4-19.4-9.4-28.6c-3.8-8.6-9.4-16.3-16.5-22.5c-13.2-11.6-29.7-18.7-46.3-24c-19.2-6.3-39.2-10.2-59-13.7
	C9.6,9.8,4.8,9.1,0,8.3v1.9c20.1,3.3,40,6.8,59.7,12.1C77.7,27.1,96,33.5,111.4,44.3z"/>
<path class="st0" d="M110.5,32c7.2,4.4,14,9.9,18.9,16.8c6.1,8.4,9.2,18.3,12.4,28.1c5.8,17.9,13.9,35,24.2,50.7
	c21.8,32.7,53.2,57.6,88.5,74.4c38,17.9,79.4,27.7,121.4,28.6c39.1,0.9,80.4-4.5,115.7-22c3.2-1.7,6.4-3.4,9.6-5.3v-2.2
	c-15.8,9.6-33.4,15.8-51.3,20.1c-20,4.7-40.6,7.2-61.1,7.5c-42.7,0.8-85-7.4-124.1-24.1c-36.3-15.8-69.3-39.3-92.7-71.6
	c-11.1-15.6-20-32.6-26.4-50.7c-3.1-8.9-5.6-18.1-9.8-26.5c-4-7.9-9.8-14.8-16.8-20.1c-13.4-10.4-29.8-16.6-45.9-21.2
	C53.6,8.8,33.7,5.2,13.7,2.1C9.2,1.3,4.6,0.7,0,0v1.9C19.8,4.8,39.5,8,59,12.6C76.7,16.9,94.8,22.3,110.5,32z"/>
</svg>
