<?xml version="1.0" encoding="utf-8"?>
<!-- Generator: Adobe Illustrator 27.0.0, SVG Export Plug-In . SVG Version: 6.00 Build 0)  -->
<svg version="1.1" id="Layer_1" xmlns="http://www.w3.org/2000/svg" xmlns:xlink="http://www.w3.org/1999/xlink" x="0px" y="0px"
	 viewBox="0 0 443 127" style="enable-background:new 0 0 443 127;" xml:space="preserve">
<style type="text/css">
	.st0{fill:#FFFFFF;}
</style>
<g id="_x23_ffffffff">
</g>
<g id="_x23_003a63ff">
	<path class="st0" d="M85.9,2.6c8.4,0,16.8,0,25.2,0c0,39.8,0,79.5,0,119.3c-8.4,0-16.8,0-25.2,0C85.9,82.1,85.9,42.3,85.9,2.6z"/>
	<path class="st0" d="M149.3,48.2c8.5-2,17.7-1.5,25.8,1.7c8.7,3.4,16.2,10,20.4,18.5c1.7,3.4,2.8,7.1,3.5,10.9
		c0.9,6.8,0.3,13.8-2.3,20.1c-3.9,9.6-11.9,17.4-21.6,21.1c-11.9,4.6-26,3.8-37-2.6c-5.7-3.3-10.6-8.2-13.8-14
		c-6.5-11.6-6.3-26.6,0.6-38C130,56.9,139.2,50.5,149.3,48.2 M158,68.8c-4.7,0.3-9,3-11.4,7c-2.6,4.4-3.1,9.9-1.6,14.7
		c1.4,4.6,5,8.7,9.6,10.2c5.4,1.9,11.9,0.4,15.8-3.9c5.8-6.6,5.5-17.6-0.8-23.8C166.6,70,162.2,68.5,158,68.8z"/>
	<path class="st0" d="M306.3,58.3c7.2-7.3,17.5-11.2,27.6-11.1c6.9-0.1,14,1.4,20,5c4.6,2.8,8.4,6.7,11.2,11.3
		c-5,3.9-10.1,7.6-15.2,11.4c-0.7,0.5-1.4,1.1-2.2,1.5c-2.3-3.4-5.7-6.4-9.8-7.3c-1.5-0.2-3-0.5-4.6-0.4c-3.6,0.3-7.1,2.1-9.4,5
		c-4.2,5.1-4.8,12.6-2.5,18.7c1.5,3.8,4.5,7.1,8.4,8.5c2.3,0.8,4.7,0.9,7.1,0.6c4.6-0.7,8.5-3.8,11.3-7.4c5.8,4,11.4,8.3,17.1,12.4
		c-2.9,4.7-6.9,8.7-11.6,11.6c-6.1,3.8-13.4,5.2-20.5,5.2c-8.8,0.1-17.7-3-24.5-8.7c-8-6.7-12.9-16.8-13.4-27.2
		C294.8,76.8,298.7,65.9,306.3,58.3z"/>
	<path class="st0" d="M10.7,53.2c11.4-4.9,24.1-6.5,36.4-5.4c6.6,0.7,13.3,2.5,18.5,6.8c3.5,2.8,6.2,6.7,7.7,10.9
		c1.5,4.1,1.9,8.4,2,12.8c0,14.4,0,28.8,0,43.3c-8.4,0-16.8,0.1-25.3,0c0-2.4,0.1-4.9-0.1-7.3c-4.2,4.8-10.1,7.9-16.4,8.7
		c-6.5,0.9-13.3,0.1-19-3.3c-5.2-3-8.9-8.5-9.6-14.5l-0.1-0.2c-0.3-3.8-0.4-7.7,0.6-11.4l0.1-0.2c1.4-5.3,5.3-9.7,10.1-12.2
		c5.9-3.1,12.8-3.9,19.4-3.6c5.1,0.3,10.3,1.1,15.1,2.8c0.2-3.4-0.6-7.2-3.2-9.6c-2.8-2.5-6.7-3.2-10.3-3.4
		c-7.1-0.1-14.2,1.4-20.8,4.1C14.2,65.3,12.4,59.3,10.7,53.2 M31.3,93.1c-2.4,2.4-2.9,6.4-1.6,9.5c1,2.4,3.4,3.9,5.9,4.3
		c4.9,0.9,10.6-1,13.1-5.4c1.8-2.9,1.7-6.4,1.7-9.6c-3.7-1.6-7.8-2.1-11.7-1.9C36.1,90.3,33.3,91.2,31.3,93.1z"/>
	<path class="st0" d="M240.9,51.3c4.1-3.1,9.3-4.2,14.3-3.9c0,9,0,18,0,27c-5-0.1-10.3,0.4-14.5,3.3c-4.2,2.8-6.6,7.7-7.5,12.5
		c-0.8,3.7-0.9,7.5-0.8,11.3c0,6.7,0,13.4,0,20.1c-8.5,0-16.9,0-25.4,0c0-24.3,0-48.7,0-73c8.5,0,16.9,0,25.4,0c0,4.8,0,9.7,0,14.5
		C234.4,58.7,236.9,54.3,240.9,51.3z"/>
	<path class="st0" d="M395.3,47.9c6.6-0.5,13.3-0.6,19.9,0.8c5.9,1.2,11.8,3.7,16,8.2c4.7,4.8,6.7,11.6,7.2,18.1
		c0.6,2.7,0.3,5.5,0.3,8.2c0,12.8,0,25.6,0,38.4c-8.5,0-16.9,0-25.4,0c0-2.5,0-4.9,0-7.4c-4.1,4.7-9.9,7.8-16,8.6
		c-6.3,0.9-13,0.3-18.6-2.8c-3.6-1.9-6.5-4.8-8.4-8.4c-2.3-4.3-2.8-9.3-2.3-14.1c0.4-4.5,2.2-9,5.4-12.3c4.1-4.4,10-6.5,15.8-7.4
		c8.1-1.2,16.5-0.2,24.3,2.2c0.1-2.9-0.3-6-2.1-8.3c-1.8-2.4-4.8-3.7-7.7-4.2c-3.4-0.7-6.9-0.4-10.3-0.1c-3.2,0.4-6.4,1.1-9.5,2.1
		c-0.7,0.2-1.4,0.5-2.1,0.7c-0.9,0.3-1.7,0.6-2.6,0.9c-1.7-6-3.4-12.1-5.2-18.1C380.7,50.4,387.9,48.5,395.3,47.9 M396.8,91.5
		c-2.1,1-3.6,3-4.3,5.2c-0.4,2.1-0.4,4.5,0.7,6.4c1.2,2.2,3.5,3.5,6,3.9c4.8,0.8,10.4-1.1,12.9-5.5c1.8-2.9,1.7-6.4,1.6-9.6
		c-2.3-0.9-4.8-1.5-7.4-1.8C403.1,89.8,399.7,89.9,396.8,91.5z"/>
	<path class="st0" d="M261.7,48.6c8.5,0,16.9,0,25.4,0c0,24.3,0,48.7,0,73c-8.5,0-16.9,0-25.4,0C261.7,97.3,261.7,72.9,261.7,48.6z"
		/>
</g>
<g id="_x23_f58026ff">
	<path class="st0" d="M261.1,2.5c1.8,1.4,3.2,3.2,4.9,4.7c7.1,7.1,14.4,14.1,21.6,21.2c0.2,4.5,0,9.1,0.1,13.7c-8.9,0-17.7,0-26.6,0
		C261.1,28.9,261.1,15.7,261.1,2.5z"/>
</g>
</svg>
