<?xml version="1.0" encoding="utf-8"?>
<!-- Generator: Adobe Illustrator 27.0.0, SVG Export Plug-In . SVG Version: 6.00 Build 0)  -->
<svg version="1.1" id="Layer_1" xmlns="http://www.w3.org/2000/svg" xmlns:xlink="http://www.w3.org/1999/xlink" x="0px" y="0px"
	 viewBox="0 0 333 169" style="enable-background:new 0 0 333 169;" xml:space="preserve">
<style type="text/css">
	.st0{fill:#FFFFFF;}
</style>
<g id="_x23_ffffffff">
</g>
<g id="_x23_000000ff">
	<path class="st0" d="M1.3,1.1c11.5,0,22.9,0,34.4,0c5.9,0,11.8,2.2,16.1,6.2c3.6,3.3,5.8,8.1,5.7,13c0.1,4.5-1.3,9-4.1,12.5
		c-2.3,2.8-5.5,4.8-8.9,6c3.6,1,7,3,9.1,6.1c1.7,2.3,2.3,5.2,2.3,8.1c0,5.2,0,10.4,0,15.7c-4.8,0-9.7,0-14.5,0c0-4.2,0-8.4,0-12.6
		c-0.1-3-0.8-6.2-3-8.4c-2.3-2.3-5.7-3-8.8-3.1c-3.3,0-6.5,0-9.8,0c0-3.9,0-7.8,0-11.7c4.7,0,9.4,0,14.2,0c3.3,0,6.5-2,7.9-5
		c1.9-3.9,1.3-9.3-2.1-12.2c-2-1.6-4.6-2.2-7.1-2.2c-5.8,0-11.7,0-17.5,0c0,14.4,0,28.8,0,43.2c-4.6,0-9.2,0-13.8,0
		C1.3,38.1,1.3,19.6,1.3,1.1z"/>
	<path class="st0" d="M175.3,1.1c4.7,0,9.5,0,14.2,0c0,14.5,0,29.1,0,43.6c3.6,0,7.3,0,10.9,0c4.6,0.1,8.8-3.9,9.3-8.5
		c0.8-4.8-2.6-10.1-7.5-11c-2.6-0.4-5.2-0.1-7.9-0.2c0-3.9,0-7.9,0-11.8c3,0,6.1,0,9.1,0c6.4-0.1,12.6,3.2,16.4,8.3
		c3.8,5.1,5,11.8,3.8,18c-1.7,7.7-8.3,13.6-15.7,15.8c-3.7,1.2-7.7,1.2-11.5,1.1c-7,0-14.1,0-21.1,0
		C175.3,38.1,175.3,19.6,175.3,1.1z"/>
	<path class="st0" d="M286.9,1.1c4.8,0,9.5,0,14.3,0c0,8.8,0,17.6,0,26.4c3-0.1,6,0.3,9-0.3c2.8-0.6,5-2.7,6-5.3
		c1.1-2.8,1.1-5.8,1.2-8.7c4.7,0,9.4,0,14.1,0c-0.1,4.6-0.1,9.4-2.5,13.5c-2,3.6-5.9,5.5-9.7,6.7c4.5,1.3,8.8,3.9,10.8,8.3
		c2.3,4.6,1.5,9.8,1.7,14.8c-4.7,0-9.5,0-14.2,0c-0.3-4.1,0.8-8.6-1.4-12.3c-1.7-3.1-5.3-4.6-8.6-4.8c-2.1-0.1-4.2,0-6.3,0
		c0,5.7,0,11.5,0,17.2c-4.8,0-9.5,0-14.3,0C286.9,38.1,286.9,19.6,286.9,1.1z"/>
	<path class="st0" d="M248.7,13.2c7-1.2,14.6-0.6,20.9,2.8c4.9,2.6,8.7,7.1,10.2,12.4c1.9,6.5,1.1,14-2.8,19.7
		c-3.3,4.8-8.7,8-14.4,9.2c-6.6,1.5-13.8,1-20-1.9c-5.9-2.8-10.8-8.1-12.4-14.5c-1.7-6.6-0.4-14,3.9-19.4
		C237.7,17,243.1,14.2,248.7,13.2 M252.2,24.2c-5.1,1.3-8.9,6.4-8.5,11.7c0.2,3.8,2.4,7.4,5.6,9.3c3.2,2,7.4,2.2,10.9,0.5
		c5.2-2.4,8-9.1,5.8-14.5C264,25.8,257.7,22.6,252.2,24.2z"/>
	<path class="st0" d="M65.6,23.4c3.7-6,10.5-9.9,17.6-10c9.2,0,18.4,0,27.6,0c-0.1,4.2,0.1,8.5-0.1,12.7c-3,4.8-6.1,9.5-9.1,14.2
		c-4.6,0-9.1,0-13.7,0c3-5,6-10,9-15.1c-3.7,0-7.4,0-11.1,0c-3.3-0.1-6.6,1.8-8.3,4.6c-2.1,3.3-1.9,7.8,0.4,10.9
		c1.8,2.7,5.1,4.2,8.3,4.2c8.2,0,16.3,0,24.5,0c0,3.9,0,7.8,0,11.8c-7.9,0-15.7,0-23.6,0c-3.2,0-6.5,0-9.6-0.9
		c-6.2-1.8-11.3-6.6-13.7-12.5C61.3,36.8,61.9,29.2,65.6,23.4z"/>
	<path class="st0" d="M126.2,17.5c3.6-2.7,8.1-4.1,12.6-4.2c9,0,18.1,0,27.1,0c0,4.2,0,8.4,0,12.6c-3,4.7-6.1,9.5-9.1,14.2
		c-4.6,0-9.1,0-13.7,0c3-5,6-10,9-15.1c-4,0-8,0-12.1,0c-5.3,0.4-9.5,5.9-8.7,11.2c0.6,4.6,4.7,8.4,9.3,8.5c8.4,0.1,16.8,0,25.2,0
		c0,3.9,0,7.8,0,11.8c-9,0-18.1,0.1-27.1,0c-5.6,0-11.1-2.3-15-6.3c-4.6-4.5-7-11.2-6.3-17.6C118.1,26.8,121.3,21.1,126.2,17.5z"/>
	<path class="st0" d="M238.7,86.1c31-3.4,62-5.9,93.1-7.9c-16.8,4.3-33.7,8.4-50.3,13.3c-23.4,6.7-46.2,15.2-68.7,24.3
		c-11.8-7-23.6-13.8-35.4-20.8C197.7,91,218.2,88.4,238.7,86.1z"/>
	<path class="st0" d="M14.8,80.1c38.7,0,77.5-0.1,116.2,0.1c8.5,4.3,16.6,9.1,24.9,13.8c32,18.4,63.8,37.1,95.5,56
		c7.6,4.6,15.2,9.1,22.8,13.8c1.7,1.1,3.4,2,4.9,3.3c-34.2-14.4-68.1-29.5-102.8-42.7c-29.6-11.3-59.8-21-90.5-28.8
		c-16.9-4.3-34-8.1-51.2-11.5C28,82.6,21.4,81.5,14.8,80.1z"/>
	<path class="st0" d="M57.3,136.7c16.1-10.6,33.9-18.3,52-24.7c10.8,2.9,21.4,6.5,32,9.9c-14.1,5.6-27.7,12.7-39.9,21.8
		c-7.8,5.9-15.3,12.3-21.3,20.1c-17.5,0-35.1,0-52.6,0C35.8,153.2,46,144.2,57.3,136.7z"/>
	<path class="st0" d="M110.9,152c12.1-11,26.2-19.7,41.2-26.4c8.4,2.9,16.8,6.1,25.1,9.3c-7.2,5.1-14.4,10.4-20.4,17
		c-3.5,3.7-6.5,7.8-9.3,11.9c-15.9,0-31.7,0-47.6,0C103,159.5,106.9,155.7,110.9,152z"/>
</g>
</svg>
