<?xml version="1.0" encoding="utf-8"?>
<!-- Generator: Adobe Illustrator 27.0.0, SVG Export Plug-In . SVG Version: 6.00 Build 0)  -->
<svg version="1.1" id="Layer_1" xmlns="http://www.w3.org/2000/svg" xmlns:xlink="http://www.w3.org/1999/xlink" x="0px" y="0px"
	 viewBox="0 0 77 24" style="enable-background:new 0 0 77 24;" xml:space="preserve">
<style type="text/css">
	.st0{fill:#FFFFFF;}
</style>
<g id="Layer_1_00000173851086026471474920000005577852810261675196_">
	<path class="st0" d="M42.3,5.4c1.2,0,2.2-0.9,2.2-2.1c0,0,0,0,0,0c0-1.2-1-2.2-2.2-2.2c-1.2,0-2.2,1-2.2,2.2c0,0,0,0,0,0
		C40.1,4.5,41.1,5.4,42.3,5.4C42.3,5.5,42.3,5.5,42.3,5.4z"/>
	<path class="st0" d="M76.6,19.8c-0.5,0.5-1.1,0.7-1.8,0.7c-0.6-0.2-1.1-0.8-1-1.4c0-0.2,0.1-0.5,0.1-0.7l2-10.2
		c0-0.2-0.1-0.3-0.2-0.4c0,0,0,0,0,0H72c-0.2,0-0.3,0.1-0.3,0.3l-0.2,1.1c-0.4-1-1.4-1.6-2.4-1.5c-4.9,0-7.4,6.1-7.6,10.3
		c-0.6,1.1-1.7,2.6-2.7,2.6s-1.2-0.5-1.2-1.3c0-1.8,1.4-5.5,1.4-8s-1.4-3.5-3.3-3.5c-1.4,0-2.7,0.6-3.5,1.7l0.2-1.3
		c0-0.2-0.1-0.3-0.2-0.4c0,0,0,0,0,0h-3.6c-0.2,0-0.4,0.1-0.4,0.3l-1.9,9.2c-1.3,1.9-2.3,3.1-3.5,3.1c-0.7,0-1.3-0.7-1.2-1.4
		c0,0,0,0,0,0c0-0.2,0.1-0.5,0.1-0.7l2-10.1c0-0.2-0.1-0.4-0.3-0.5c0,0-0.1,0-0.1,0h-3.5c-0.2,0-0.3,0.1-0.4,0.3l-1.9,9.4
		c-1.3,1.9-2.4,3-3.5,3c-0.7-0.1-1.3-0.7-1.2-1.4c0-0.3,0.1-0.5,0.1-0.8l3.3-16.3c0-0.2-0.1-0.3-0.2-0.4c0,0-0.1,0-0.1,0l-3.6,0.5
		c-0.2,0-0.4,0.2-0.4,0.4l-2.8,13.7c-2,3.1-4.1,4.5-6.4,4.5c-1.1,0-2.1-0.8-2.1-2.5c0-0.6,0-1.1,0-1.2h0.3l0,0h0.2
		c0.4-0.1,0.8-0.1,1.2-0.3h0.1l0,0c2.9-0.8,4.9-3.3,5-6.3c0-1.6-0.9-3-3.2-3c-4.7,0-7,4.5-7.7,8.2c-0.5,0-0.9,0-1.4,0
		c-0.3-6.2-6.7-7-6.7-11.4C8.4,3,9.5,1.7,10.9,1.6c0.1,0,0.2,0,0.4,0c1.2,0,2.2,0.9,2.2,2.1c0.1,0.8-0.2,1.6-0.7,2.2
		c-0.1,0.1-0.1,0.3,0,0.4c0,0,0,0,0,0c0.3,0.2,0.7,0.2,1.1,0.2c0.6,0,1.2-0.3,1.6-0.7c0.5-0.5,0.8-1.2,0.7-1.9
		c0-3.1-3.7-3.9-5.1-3.9C7.3,0,4.3,2.4,4.3,5.6c0,3.8,4.2,5.8,5.7,9.4c-1-0.2-2.1-0.3-3.2-0.4c-1.5-0.1-2.9,0.2-4.2,0.8
		c-1.4,0.6-2.4,2-2.5,3.5c-0.1,1.2,0.3,2.4,1.2,3.2C2.8,23.8,5.1,24,6.6,24c0.6,0,1.3,0,1.9-0.1c3.4-0.5,6.3-2.6,6.8-6.5h1.2
		c0,0.4-0.1,0.9-0.1,1.2c0,3.1,1.8,4.9,4.6,4.9c3.1,0,6-1.5,7.7-4.1c0,0.1,0,0.3,0,0.4c0,2.4,1.4,3.6,3.2,3.7s3.6-0.4,5.5-3.3
		c-0.1,1.7,1.3,3.2,3,3.3c0,0,0.1,0,0.1,0c1.6,0.1,3.2-0.2,5.2-2.9L45.2,23c0,0.2,0.1,0.3,0.2,0.4c0,0,0,0,0.1,0H49
		c0.2,0,0.4-0.2,0.4-0.4l1.9-9.5c0.1-0.6,0.3-1.2,0.5-1.7c0.2-0.7,0.9-1.3,1.7-1.3c0.8,0,1.2,0.6,1.2,1.6c0,2-1.3,5.8-1.3,7.9
		c-0.2,1.8,1.1,3.4,2.9,3.5c0.2,0,0.4,0,0.6,0c1.3,0,3-0.4,4.6-3.3c0.2,1.9,1.9,3.3,3.8,3.3c1.9-0.1,3.6-1.2,4.4-2.9
		c0.1,1.6,1.3,2.8,2.9,2.9c1.9,0.1,3.6-1,4.3-3.5c0-0.1-0.1-0.2-0.2-0.3C76.7,19.8,76.7,19.8,76.6,19.8z M24.4,9.5
		c0.5,0,0.9,0.4,0.9,1.2c-0.1,2.4-1.8,4.4-4.2,4.8C21.6,12.4,22.9,9.5,24.4,9.5z M8.1,21.5c-0.7,0.3-1.5,0.3-2.2,0.1
		c-1.1-0.2-1.8-1.2-1.7-2.3c0.2-1,1-1.9,2-2.1c1.4-0.3,2.8-0.3,4.2,0v0.2C10.4,19.4,9.5,20.9,8.1,21.5L8.1,21.5z M71,11.3l-1.3,6.5
		c-0.4,1.8-1.6,2.7-2.5,2.7c-0.5,0-1.5,0-1.5-2.4c0-2.9,1.4-8.3,4-8.3C70.5,9.9,71,10.5,71,11.3C71,11.3,71,11.3,71,11.3z"/>
</g>
</svg>
