<svg xmlns="http://www.w3.org/2000/svg" viewBox="0 0 20 20"><title>book-e2</title><path d="M11.9,19.18a.82.82,0,0,1-1.12.31h0l-8.49-4.9a1.61,1.61,0,0,1,1.42-2.89l.19.11,6.92,4a1.23,1.23,0,0,0,1.68-.45l5.26-9.12a1.23,1.23,0,0,0-.45-1.68L9.69.17A1.23,1.23,0,0,0,8,.6H8L1.34,12.18A2,2,0,0,0,2,14.91l0,0,8.49,4.9a1.23,1.23,0,0,0,1.68-.45L18.91,7.85a.2.2,0,0,0-.07-.27h0a.2.2,0,0,0-.28.06h0ZM8.36.81A.82.82,0,0,1,9.49.52h0L17.1,4.91A.82.82,0,0,1,17.4,6l-5.26,9.12a.82.82,0,0,1-1.12.31h0l-6.92-4a2,2,0,0,0-1.8-.11Zm2.43,17.07a.2.2,0,1,0,.2-.35L3.36,13.13a.2.2,0,1,0-.2.35l7.64,4.41"/></svg>