<svg xmlns="http://www.w3.org/2000/svg" viewBox="0 0 20 20"><title>book2</title><path d="M16.341,20H4.608a2.428,2.428,0,0,1-2.425-2.425V1.477A1.479,1.479,0,0,1,3.659,0H14.182a1.478,1.478,0,0,1,1.476,1.477V14.162a1.478,1.478,0,0,1-1.476,1.477H4.608a1.937,1.937,0,1,0,0,3.874H16.341a.99.99,0,0,0,.989-.988V2.465a.244.244,0,0,1,.488,0V18.524A1.478,1.478,0,0,1,16.341,20ZM3.659.488a.99.99,0,0,0-.989.989V16.118a2.423,2.423,0,0,1,1.937-.968h9.574a.99.99,0,0,0,.988-.989V1.477a.99.99,0,0,0-.988-.989ZM15.646,17.594a.244.244,0,0,0-.244-.244H4.6a.244.244,0,0,0,0,.488H15.4A.244.244,0,0,0,15.646,17.594Z"/></svg>