<svg id="Layer_1" data-name="Layer 1" xmlns="http://www.w3.org/2000/svg" viewBox="0 0 20 20"><title>envelope</title><path d="M19.92,11,17.06,3a1.36,1.36,0,0,0-1.73-.82L.9,7.32A1.35,1.35,0,0,0,.08,9l2.86,8a1.35,1.35,0,0,0,1.73.82L19.1,12.68A1.35,1.35,0,0,0,19.92,11ZM.48,8.18A1,1,0,0,1,1,7.68L15.46,2.51a1,1,0,0,1,.33-.06,1,1,0,0,1,.55.17L10.78,10a1.38,1.38,0,0,1-1.37.49l-9-2.17A1,1,0,0,1,.48,8.18Zm19,3.64a1,1,0,0,1-.55.5L4.54,17.49A1,1,0,0,1,3.3,16.9l-2.86-8a1,1,0,0,1,0-.2l8.92,2.16a1.74,1.74,0,0,0,.37,0,1.77,1.77,0,0,0,1.39-.67L16.6,2.91a1,1,0,0,1,.09.18l2.86,8A1,1,0,0,1,19.52,11.82Z"/></svg>