<svg id="Layer_1" data-name="Layer 1" xmlns="http://www.w3.org/2000/svg" viewBox="0 0 20 20"><title>user</title><path d="M10,11a5.38,5.38,0,1,1,5.39-5.38A5.39,5.39,0,0,1,10,11ZM10,.59a5,5,0,1,0,5,5A5,5,0,0,0,10,.59ZM19.23,19.8H.77A.77.77,0,0,1,0,19a6.09,6.09,0,0,1,1.26-3.29c1.63-2.13,4.65-3.25,8.74-3.25s7.11,1.13,8.74,3.25A6,6,0,0,1,20,19,.77.77,0,0,1,19.23,19.8ZM10,12.89C6,12.89,3.13,14,1.57,16A5.67,5.67,0,0,0,.39,19a.38.38,0,0,0,.38.38H19.23a.38.38,0,0,0,.38-.38,5.68,5.68,0,0,0-1.18-3C16.87,14,14,12.89,10,12.89Z"/></svg>